<svg width="1200" height="360" viewBox="0 0 1200 360" xmlns="http://www.w3.org/2000/svg" role="img" aria-label="Neo logo">
  <defs>
    <linearGradient id="bg" x1="0" y1="0" x2="1" y2="1">
      <stop offset="0%" stop-color="#020617"/>
      <stop offset="100%" stop-color="#0B1224"/>
    </linearGradient>
    <linearGradient id="accent" x1="0" y1="0" x2="1" y2="1">
      <stop offset="0%" stop-color="#22D3EE"/>
      <stop offset="100%" stop-color="#3B82F6"/>
    </linearGradient>
    <filter id="glow" x="-20%" y="-20%" width="140%" height="140%">
      <feGaussianBlur stdDeviation="8" result="blur"/>
      <feMerge>
        <feMergeNode in="blur"/>
        <feMergeNode in="SourceGraphic"/>
      </feMerge>
    </filter>
  </defs>

  <rect width="1200" height="360" rx="26" fill="url(#bg)"/>

  <g opacity="0.24" stroke="#1E293B" stroke-width="1">
    <path d="M0 72H1200M0 144H1200M0 216H1200M0 288H1200"/>
    <path d="M120 0V360M240 0V360M360 0V360M480 0V360M600 0V360M720 0V360M840 0V360M960 0V360M1080 0V360"/>
  </g>

  <g transform="translate(100,66)">
    <rect x="0" y="0" width="228" height="228" rx="34" fill="#0F172A" stroke="#1E293B"/>
    <path d="M48 174V54H86L150 136V54H180V174H145L78 89V174H48Z" fill="url(#accent)" filter="url(#glow)"/>
    <circle cx="196" cy="34" r="7" fill="#22D3EE"/>
    <circle cx="30" cy="194" r="5" fill="#3B82F6"/>
  </g>

  <g transform="translate(380,96)">
    <text x="0" y="96" fill="#E2E8F0" font-family="Inter,Segoe UI,Arial,sans-serif" font-size="124" font-weight="700" letter-spacing="2">Neo</text>
    <text x="4" y="138" fill="#93C5FD" font-family="Inter,Segoe UI,Arial,sans-serif" font-size="28" font-weight="500" letter-spacing="3">
      SCALABLE. OPEN. ORACLE-KILLER.
    </text>
  </g>
</svg>

